<svg width="24" height="24" viewBox="0 0 24 24" fill="none" xmlns="http://www.w3.org/2000/svg">
<path d="M4.50443 7.63755L4.14198 7.29312L3.45312 8.01802L3.81557 8.36245L4.50443 7.63755ZM11 14.5L11.3537 14.1463L11.3444 14.1376L11 14.5ZM13 14.5L12.6598 14.1336L12.653 14.1399L12.6464 14.1464L13 14.5ZM20.3402 8.3664L20.7066 8.02617L20.0262 7.29338L19.6598 7.6336L20.3402 8.3664ZM12 15.5L11.6464 15.8536C11.8417 16.0488 12.1583 16.0488 12.3536 15.8536L12 15.5ZM3.81557 8.36245L10.6556 14.8624L11.3444 14.1376L4.50443 7.63755L3.81557 8.36245ZM13.3402 14.8664L20.3402 8.3664L19.6598 7.6336L12.6598 14.1336L13.3402 14.8664ZM10.6464 14.8536L11.6464 15.8536L12.3536 15.1464L11.3536 14.1464L10.6464 14.8536ZM12.3536 15.8536L13.3536 14.8536L12.6464 14.1464L11.6464 15.1464L12.3536 15.8536Z" fill="#1D1D1D"/>
</svg>
